<svg width="800" height="600" viewBox="0 0 800 600" xmlns="http://www.w3.org/2000/svg">
  <rect width="100%" height="100%" fill="#bde0fe"/>
  
  <!-- Browser window -->
  <rect x="150" y="100" width="500" height="350" rx="10" ry="10" fill="#fefae0" stroke="#333" stroke-width="4"/>
  <rect x="150" y="100" width="500" height="50" rx="10" ry="10" fill="#468faf"/>
  <circle cx="180" cy="125" r="7" fill="#f94144"/>
  <circle cx="205" cy="125" r="7" fill="#f9c74f"/>
  <circle cx="230" cy="125" r="7" fill="#90be6d"/>
  
  <!-- Image placeholder -->
  <rect x="180" y="180" width="200" height="120" fill="#ade8f4" stroke="#333" stroke-width="2"/>
  <polygon points="180,300 220,240 260,280 300,230 380,300" fill="#0077b6"/>
  <circle cx="340" cy="200" r="10" fill="#f9c74f"/>

  <!-- Text blocks -->
  <rect x="420" y="180" width="160" height="25" rx="5" fill="#0077b6"/>
  <rect x="420" y="220" width="150" height="15" rx="3" fill="#adb5bd"/>
  <rect x="420" y="250" width="150" height="15" rx="3" fill="#adb5bd"/>
  <rect x="420" y="280" width="150" height="15" rx="3" fill="#adb5bd"/>
  <rect x="420" y="310" width="160" height="50" rx="5" fill="#f9c74f" stroke="#333" stroke-width="2"/>

  <!-- Ladder -->
  <rect x="130" y="170" width="10" height="200" fill="#333"/>
  <line x1="130" y1="200" x2="140" y2="200" stroke="#ccc" stroke-width="3"/>
  <line x1="130" y1="230" x2="140" y2="230" stroke="#ccc" stroke-width="3"/>
  <line x1="130" y1="260" x2="140" y2="260" stroke="#ccc" stroke-width="3"/>
  <line x1="130" y1="290" x2="140" y2="290" stroke="#ccc" stroke-width="3"/>

  <!-- Crane -->
  <line x1="540" y1="50" x2="700" y2="50" stroke="#333" stroke-width="8"/>
  <line x1="700" y1="50" x2="700" y2="100" stroke="#333" stroke-width="8"/>
  <line x1="700" y1="100" x2="400" y2="100" stroke="#333" stroke-width="2"/>
  <rect x="385" y="90" width="30" height="20" fill="#fff" stroke="#333" stroke-width="2"/>

  <!-- Tools and cone -->
  <polygon points="300,480 310,500 290,500" fill="#f3722c" stroke="#333" stroke-width="2"/>
  <circle cx="580" cy="490" r="15" fill="#adb5bd" stroke="#333" stroke-width="3"/>
  <line x1="580" y1="475" x2="580" y2="505" stroke="#333" stroke-width="2"/>
  <rect x="350" y="460" width="60" height="40" fill="#333"/>
  <line x1="355" y1="470" x2="405" y2="470" stroke="#ccc" stroke-width="3"/>

</svg>
